<svg width="1920" height="940" viewBox="0 0 1920 940" fill="none" xmlns="http://www.w3.org/2000/svg">
<path d="M594.112 -10.949L524.259 45.714M594.112 -10.949L676.092 76.5405M594.112 -10.949L486.708 -47.7771M594.112 -10.949L725.643 31.3867M594.112 -10.949L733.685 -11.448M524.259 45.714L676.092 76.5405M524.259 45.714L486.708 -47.7771M524.259 45.714L436.897 29.8118M524.259 45.714L404.902 84.4479M524.259 45.714L532.627 147.143M524.259 45.714L616.143 120.25M676.092 76.5405L616.143 120.25M676.092 76.5405L725.643 31.3867M676.092 76.5405L700.997 206.62M676.092 76.5405L813.33 115.758M486.708 -47.7771L436.897 29.8118M486.708 -47.7771L373.856 -11.448M486.708 -47.7771L373.856 -38.9661M436.897 29.8118L373.856 -11.448M436.897 29.8118L300.697 17.1085M436.897 29.8118L404.902 84.4479M373.856 -11.448L300.697 17.1085M373.856 -11.448V-38.9661M373.856 -11.448L289.282 -56.8788M300.697 17.1085L289.282 -56.8788M300.697 17.1085L225.203 -21.5725M300.697 17.1085L196.665 68.7698M300.697 17.1085L404.902 84.4479M300.697 17.1085L346.356 104.076M300.697 17.1085L276.31 68.7698M373.856 -38.9661L289.282 -56.8788M289.282 -56.8788L225.203 -21.5725M289.282 -56.8788L154.378 -47.7771M225.203 -21.5725L196.665 68.7698M225.203 -21.5725L154.378 -47.7771M225.203 -21.5725L122.469 14.5125M196.665 68.7698L122.469 14.5125M196.665 68.7698L104.308 127.456M196.665 68.7698L179.543 173.131M196.665 68.7698H276.31M196.665 68.7698L268.471 122.167M154.378 -47.7771L122.469 14.5125M154.378 -47.7771L72.3986 -53.5039M154.378 -47.7771L72.3986 -120.741M122.469 14.5125L72.3986 -53.5039M122.469 14.5125L-15.2068 -19.1919M122.469 14.5125L65.1345 35.7798M122.469 14.5125L104.308 127.456M72.3986 -53.5039L-15.2068 -19.1919M72.3986 -53.5039L-15.2068 -102.31M72.3986 -53.5039V-120.741M-15.2068 -19.1919L9.64514 76.5405M-15.2068 -19.1919L65.1345 35.7798M-15.2068 -19.1919L-83 -78.7303M-15.2068 -19.1919L-70.6475 76.5405M-15.2068 -19.1919V-102.31M65.1345 35.7798L104.308 127.456M65.1345 35.7798L9.64514 76.5405M104.308 127.456L179.543 173.131M104.308 127.456L9.64514 166.528M104.308 127.456L9.64514 76.5405M179.543 173.131L268.471 122.167M179.543 173.131L362.468 189.486M179.543 173.131L9.64514 166.528M179.543 173.131L239.99 249.455M179.543 173.131L146.409 255.426M9.64514 166.528V76.5405M9.64514 166.528L-71.3347 77.7274M9.64514 166.528L146.409 255.426M9.64514 166.528L-16.0669 249.455M9.64514 76.5405L-71.3347 77.7274M-71.3347 77.7274L-70.6475 76.5405M-83 -78.7303L-70.6475 76.5405M-83 -78.7303L-15.2068 -102.31M-15.2068 -102.31L72.3986 -120.741M-15.2068 -102.31L-30.5952 -148L72.3986 -120.741M404.902 84.4479L532.627 147.143M404.902 84.4479L458.495 179.507M404.902 84.4479L362.468 189.486M404.902 84.4479L346.356 104.076M532.627 147.143L616.143 120.25M532.627 147.143L569.06 206.62M532.627 147.143L458.495 179.507M616.143 120.25L569.06 206.62M616.143 120.25L700.997 206.62M569.06 206.62L458.495 179.507M569.06 206.62H700.997M569.06 206.62L544.301 267.627M458.495 179.507L362.468 189.486M458.495 179.507L544.301 267.627M458.495 179.507L399.28 297.222M362.468 189.486L346.356 104.076M362.468 189.486L268.471 122.167M362.468 189.486L239.99 249.455M362.468 189.486L399.28 297.222M346.356 104.076L276.31 68.7698M346.356 104.076L268.471 122.167M276.31 68.7698L268.471 122.167M725.643 31.3867L733.685 -11.448M725.643 31.3867L813.33 115.758M725.643 31.3867L844.202 3.86865M733.685 -11.448L844.202 3.86865M733.685 -11.448L747.5 -65M844.202 3.86865L934.224 151.936M844.202 3.86865L813.33 115.758M844.202 3.86865L955.497 43.5152M844.202 3.86865L905 -71.5M844.202 3.86865L747.5 -65M934.224 151.936L813.33 115.758M934.224 151.936L852.763 237.513M934.224 151.936L955.497 43.5152M934.224 151.936L917.361 319.288M934.224 151.936L1100 17.6277M934.224 151.936L1056.16 249.455M813.33 115.758L700.997 206.62M813.33 115.758L852.763 237.513M700.997 206.62L852.763 237.513M700.997 206.62L663.898 312.798M700.997 206.62L544.301 267.627M852.763 237.513L917.361 319.288M852.763 237.513L824.226 382.891M852.763 237.513L663.898 312.798M955.497 43.5152L1100 17.6277M955.497 43.5152L1090.5 -39.5M955.497 43.5152L905 -71.5M917.361 319.288L1056.16 249.455M917.361 319.288L824.226 382.891M917.361 319.288L981 504M917.361 319.288L1078.5 421.5M1100 17.6277L1056.16 249.455M1100 17.6277L1135.5 237.513M1100 17.6277L1240 200M1100 17.6277L1332.5 65M1100 17.6277L1090.5 -39.5M1100 17.6277L1314.5 -39.5M1056.16 249.455L1078.5 421.5M1056.16 249.455L1192 421.5M1056.16 249.455L1135.5 237.513M1056.16 249.455L1292 342.5M239.99 249.455L146.409 255.426M239.99 249.455L246.155 382.891M239.99 249.455L399.28 297.222M146.409 255.426L246.155 382.891M146.409 255.426L-16.0669 249.455M146.409 255.426L100.932 319.288M246.155 382.891L100.932 319.288M246.155 382.891L100.932 514.511M246.155 382.891L399.28 297.222M246.155 382.891L494.231 489.849M246.155 382.891L270.603 548M-16.0669 249.455L100.932 319.288M-16.0669 249.455L16.9092 548M-16.0669 249.455L-95 489.849M100.932 319.288V514.511M100.932 319.288L16.9092 548M100.932 514.511L16.9092 548M100.932 514.511L270.603 548M100.932 514.511L200.5 612M16.9092 548L200.5 612M16.9092 548L125.5 723.5M16.9092 548L-95 489.849M16.9092 548L-71 619M824.226 382.891L663.898 312.798M824.226 382.891L981 504M824.226 382.891L681.28 438.447M824.226 382.891L801.656 474.792M663.898 312.798L544.301 267.627M663.898 312.798L681.28 438.447M663.898 312.798L569.06 396.131M544.301 267.627L569.06 396.131M544.301 267.627L399.28 297.222M399.28 297.222L569.06 396.131M399.28 297.222L494.231 489.849M981 504L801.656 474.792M981 504L1078.5 421.5M981 504L942.5 605M981 504L1121 612M681.28 438.447L801.656 474.792M681.28 438.447L569.06 396.131M681.28 438.447L633.979 514.511M801.656 474.792L633.979 514.511M801.656 474.792L813.33 657M801.656 474.792L942.5 605M1078.5 421.5L1121 612M1078.5 421.5H1192M1078.5 421.5L1168 495.5M569.06 396.131L494.231 489.849M569.06 396.131L633.979 514.511M494.231 489.849L270.603 548M494.231 489.849L633.979 514.511M494.231 489.849L449 594M270.603 548L449 594M270.603 548L371 686.5M270.603 548L200.5 612M633.979 514.511L558 686.5M633.979 514.511L813.33 657M633.979 514.511L449 594M449 594L371 686.5M449 594L558 686.5M449 594V729.5M371 686.5L200.5 612M371 686.5L125.5 723.5M371 686.5L449 729.5M371 686.5L257.5 790M371 686.5L365.5 769.5M558 686.5L813.33 657M558 686.5L700.997 786M558 686.5L449 729.5M813.33 657L942.5 605M813.33 657L1006.5 714.5M813.33 657L700.997 786M813.33 657L832 747.5M942.5 605L1121 612M942.5 605L1006.5 714.5M1121 612L1006.5 714.5M1121 612L1168 495.5M1121 612L1271 590.5M1121 612L1380 768M1121 612L1178 780M1006.5 714.5L832 747.5M1006.5 714.5L838.5 827M1006.5 714.5L1178 780M1006.5 714.5L1047 856M700.997 786L832 747.5M700.997 786L838.5 827M700.997 786L444 861.5M700.997 786L449 729.5M700.997 786L662.5 898.5M832 747.5L838.5 827M838.5 827L1047 856M838.5 827L662.5 898.5M838.5 827L847 992M200.5 612L125.5 723.5M125.5 723.5L-71 619M125.5 723.5L-18.5 790M125.5 723.5L131 819M125.5 723.5L257.5 790M-95 489.849L-71 619M-71 619L-18.5 790M449 729.5L444 861.5M449 729.5L365.5 769.5M1192 421.5L1292 342.5M1192 421.5L1336.5 460.5M1192 421.5L1168 495.5M1135.5 237.513L1240 200M1135.5 237.513L1292 342.5M1135.5 237.513L1336.5 281M1240 200L1336.5 281M1240 200L1332.5 65M1240 200H1388.5M1292 342.5L1336.5 281M1292 342.5L1336.5 460.5M1292 342.5L1496 386M1292 342.5L1430 319.288M1336.5 281L1471.5 249.455M1336.5 281L1430 319.288M1336.5 281L1388.5 200M1336.5 460.5L1168 495.5M1336.5 460.5L1271 590.5M1336.5 460.5L1481 685M1336.5 460.5L1456 532M1336.5 460.5L1496 386M1168 495.5L1271 590.5M1271 590.5L1481 685M1271 590.5L1380 768M1481 685L1456 532M1481 685L1613 540.5M1481 685L1380 768M1481 685H1607.5M1481 685L1548 856M1456 532L1496 386M1456 532L1613 540.5M1496 386L1613 540.5M1496 386L1735 455M1496 386L1471.5 249.455M1496 386L1430 319.288M1496 386L1569.5 306M1613 540.5L1607.5 685M1613 540.5L1724.5 605M1613 540.5L1735 455M1380 768L1178 780M1380 768L1192 917.5M1380 768L1548 856M1380 768L1511 917.5M1380 768L1391 876M1178 780L1047 856M1178 780L1192 917.5M1047 856L1192 917.5M1047 856L847 992M1047 856L1077.5 963M1192 917.5L1391 876M1192 917.5L1354 1009M1192 917.5L1078.05 962.783M1192 917.5L1211 1026M-18.5 790L131 819M-18.5 790L-119.5 864.5M-18.5 790L26 897.5M131 819L200.5 845.5M131 819L257.5 790M131 819L26 897.5M257.5 790L365.5 769.5M257.5 790L200.5 845.5M257.5 790L349.5 928.5M365.5 769.5L444 861.5M365.5 769.5L349.5 928.5M444 861.5L349.5 928.5M444 861.5L536.5 981.5M444 861.5L662.5 898.5M200.5 845.5L349.5 928.5M200.5 845.5L173 981.5M200.5 845.5L26 897.5M349.5 928.5L173 981.5M349.5 928.5L536.5 981.5M349.5 928.5L335.5 1059M173 981.5L26 897.5M173 981.5L20.5 1003.5M173 981.5L335.5 1059M26 897.5L-119.5 864.5M26 897.5L20.5 1003.5M-119.5 864.5L20.5 1003.5M1332.5 65L1388.5 200M1332.5 65L1314.5 -39.5M1332.5 65L1430 52M1090.5 -39.5L905 -71.5M1090.5 -39.5H1314.5M905 -71.5L747.5 -65M1607.5 685L1724.5 605M1607.5 685L1746.5 756M1607.5 685L1548 856M1724.5 605L1746.5 756M1724.5 605L1840 630.5M1724.5 605L1735 455M1724.5 605L1848 521.5M1746.5 756L1548 856M1746.5 756L1798.5 890.5M1746.5 756H1870M1746.5 756L1840 630.5M1548 856L1798.5 890.5M1548 856L1511 917.5M1548 856L1653 937.5M1798.5 890.5L1653 937.5M1798.5 890.5L1767.5 978.5M1798.5 890.5L1977.5 917.5M1798.5 890.5L1870 756M1511 917.5L1391 876M1511 917.5L1481 1013.5M1511 917.5L1653 937.5M1391 876L1354 1009M1391 876L1481 1013.5M1354 1009L1481 1013.5M1354 1009L1211 1026M1481 1013.5L1653 937.5M1481 1013.5L1681.5 1030M1653 937.5L1767.5 978.5M1653 937.5L1681.5 1030M536.5 981.5L335.5 1059M536.5 981.5L662.5 898.5M536.5 981.5L690.5 963M662.5 898.5L690.5 963M662.5 898.5L847 992M690.5 963L847 992M847 992L1077.5 963M1077.5 963L1078.05 962.783M1078.05 962.783L1211 1026M1767.5 978.5L1921.5 1013.5L1977.5 917.5M1767.5 978.5L1977.5 917.5M1767.5 978.5L1681.5 1030M1977.5 917.5L1870 756M1977.5 917.5L2055.5 780M1870 756L1840 630.5M1870 756L1997.5 648.5M1870 756L2055.5 780M1840 630.5L1997.5 648.5M1840 630.5L1848 521.5M1840 630.5L1982.5 483.5M1997.5 648.5L2055.5 780M1997.5 648.5L1982.5 483.5M1735 455L1848 521.5M1735 455L1681.5 210.5M1735 455L1569.5 306M1735 455L1793.5 275M1735 455L1831 381M1735 455H1816M1848 521.5L1982.5 483.5M1848 521.5L1816 455M1982.5 483.5L1831 381M1982.5 483.5L1816 455M1982.5 483.5L1970.5 306M1471.5 249.455L1430 319.288M1471.5 249.455L1388.5 200M1471.5 249.455L1487 181.5M1471.5 249.455L1575 200M1471.5 249.455L1569.5 306M1388.5 200L1430 52M1388.5 200L1487 181.5M1314.5 -39.5L1430 52M1314.5 -39.5L1479.5 -4.5M1314.5 -39.5L1479.5 -51M1430 52L1487 181.5M1430 52L1479.5 -4.5M1430 52H1516.5M1487 181.5L1527 101M1487 181.5L1575 200M1479.5 -4.5L1516.5 52M1479.5 -4.5L1624 73.5M1479.5 -4.5L1640.5 -24.5M1479.5 -4.5V-51M1516.5 52L1624 73.5M1516.5 52L1527 101M1624 73.5L1640.5 -24.5M1624 73.5V125M1624 73.5L1527 101M1624 73.5L1719.5 44.5M1640.5 -24.5L1719.5 44.5M1640.5 -24.5C1644.1 -24.5 1733.33 -34.5 1777.5 -39.5M1640.5 -24.5L1479.5 -51M1624 125L1527 101M1624 125L1575 200M1624 125L1681.5 210.5M1624 125L1765.5 172M1624 125L1719.5 44.5M1527 101L1575 200M1575 200L1569.5 306M1575 200L1681.5 210.5M1569.5 306L1681.5 210.5M1681.5 210.5L1793.5 275M1681.5 210.5L1765.5 172M1793.5 275L1831 381M1793.5 275L1970.5 306M1793.5 275L1765.5 172M1793.5 275L1868.5 225.5M1831 381L1816 455M1831 381L1970.5 306M1970.5 306L1868.5 225.5M1970.5 306L1957 192.5M1765.5 172L1719.5 44.5M1765.5 172L1793.5 107.5M1765.5 172L1861.5 159M1765.5 172L1868.5 225.5M1719.5 44.5L1777.5 -39.5M1719.5 44.5L1851.5 12M1719.5 44.5L1821.5 60.5M1719.5 44.5L1793.5 107.5M1777.5 -39.5L1851.5 12M1777.5 -39.5L1888 -24.5M1851.5 12L1821.5 60.5M1851.5 12L1876.5 91M1851.5 12L1942.5 38.5M1851.5 12L1888 -24.5M1821.5 60.5L1876.5 91M1821.5 60.5L1793.5 107.5M1876.5 91L1793.5 107.5M1876.5 91L1861.5 159M1876.5 91H1962.5M1876.5 91L1942.5 38.5M1793.5 107.5L1861.5 159M1861.5 159L1868.5 225.5M1861.5 159L1957 192.5M1861.5 159L1962.5 91M1868.5 225.5L1957 192.5M1957 192.5L1962.5 91M1962.5 91L1942.5 38.5M1962.5 91L1983.5 -8.5M1942.5 38.5L1888 -24.5M1942.5 38.5L1983.5 -8.5M1888 -24.5L1983.5 -8.5" stroke="white" stroke-opacity="0.07"/>
</svg>
