<?xml version="1.0" encoding="utf-8"?>
<!-- Generator: Adobe Illustrator 23.0.1, SVG Export Plug-In . SVG Version: 6.00 Build 0)  -->
<svg version="1.1" xmlns="http://www.w3.org/2000/svg" xmlns:xlink="http://www.w3.org/1999/xlink" x="0px" y="0px"
	 viewBox="0 0 750 500" style="enable-background:new 0 0 750 500;" xml:space="preserve">
<style type="text/css">
	.st0{display:none;}
	.st1{display:inline;fill:#FFFFFF;}
	.st2{clip-path:url(#SVGID_2_);}
	.st3{display:none;fill:none;stroke:#FFFFFF;stroke-miterlimit:10;}
	.st4{fill:none;stroke:#F9F9F9;stroke-miterlimit:10;}
	.st5{fill:none;stroke:#F4F4F4;stroke-miterlimit:10;}
	.st6{fill:none;stroke:#EEEEEE;stroke-miterlimit:10;}
	.st7{fill:none;stroke:#E9E9E9;stroke-miterlimit:10;}
	.st8{fill:none;stroke:#E3E3E3;stroke-miterlimit:10;}
	.st9{fill:none;stroke:#DEDEDE;stroke-miterlimit:10;}
	.st10{fill:none;stroke:#D8D8D8;stroke-miterlimit:10;}
	.st11{fill:none;stroke:#D2D2D2;stroke-miterlimit:10;}
	.st12{fill:none;stroke:#CDCDCD;stroke-miterlimit:10;}
	.st13{fill:none;stroke:#C7C7C7;stroke-miterlimit:10;}
	.st14{fill:none;stroke:#C2C2C2;stroke-miterlimit:10;}
	.st15{fill:none;stroke:#BCBCBC;stroke-miterlimit:10;}
	.st16{fill:none;stroke:#B7B7B7;stroke-miterlimit:10;}
	.st17{fill:none;stroke:#B1B1B1;stroke-miterlimit:10;}
	.st18{fill:none;stroke:#ABABAB;stroke-miterlimit:10;}
	.st19{fill:none;stroke:#A6A6A6;stroke-miterlimit:10;}
	.st20{fill:none;stroke:#A0A0A0;stroke-miterlimit:10;}
	.st21{fill:none;stroke:#9B9B9B;stroke-miterlimit:10;}
	.st22{fill:none;stroke:#959595;stroke-miterlimit:10;}
	.st23{fill:none;stroke:#909090;stroke-miterlimit:10;}
	.st24{fill:none;stroke:#8A8A8A;stroke-miterlimit:10;}
	.st25{fill:none;stroke:#FFFFFF;stroke-miterlimit:10;}
	.st26{fill:none;stroke:#FBFBFB;stroke-miterlimit:10;}
	.st27{fill:none;stroke:#F6F6F6;stroke-miterlimit:10;}
	.st28{fill:none;stroke:#F2F2F2;stroke-miterlimit:10;}
	.st29{fill:none;stroke:#E5E5E5;stroke-miterlimit:10;}
	.st30{fill:none;stroke:#E1E1E1;stroke-miterlimit:10;}
	.st31{fill:none;stroke:#DCDCDC;stroke-miterlimit:10;}
	.st32{fill:none;stroke:#D4D4D4;stroke-miterlimit:10;}
	.st33{fill:none;stroke:#CFCFCF;stroke-miterlimit:10;}
	.st34{fill:none;stroke:#CBCBCB;stroke-miterlimit:10;}
	.st35{fill:none;stroke:#BEBEBE;stroke-miterlimit:10;}
	.st36{fill:none;stroke:#BABABA;stroke-miterlimit:10;}
	.st37{fill:none;stroke:#B5B5B5;stroke-miterlimit:10;}
	.st38{fill:none;stroke:#ADADAD;stroke-miterlimit:10;}
	.st39{fill:none;stroke:#A8A8A8;stroke-miterlimit:10;}
	.st40{fill:none;stroke:#A4A4A4;stroke-miterlimit:10;}
</style>
<g id="BACKGROUND" class="st0">
	<rect class="st1" width="750" height="500"/>
</g>
<g id="OBJECTS">
	<g>
		<defs>
			<rect id="SVGID_1_" width="750" height="500"/>
		</defs>
		<clipPath id="SVGID_2_">
			<use xlink:href="#SVGID_1_"  style="overflow:visible;"/>
		</clipPath>
		<g class="st2">
			<g>
				<path class="st3" d="M89.94,505.77c15.55-21.52,32.39-42.1,50.4-61.61c8.01-8.67,16.47-17.3,27.09-22.46
					c27.13-13.2,59.56-0.39,85.12,15.65c23.54,14.77,45.31,32.34,64.7,52.23c19.22,19.71,36.47,41.99,59.75,56.68
					c23.29,14.69,55.25,20.12,77.75,4.26c13.39-9.44,21.45-25.11,24.5-41.2c3.05-16.1,1.55-32.71-1.06-48.88
					c-2.99-18.52-7.38-37.83-1.53-55.65c6.05-18.45,23.56-32.58,42.87-34.6c27.47-2.87,51.63,16.25,74.78,31.32
					c29.41,19.14,63.59,33.39,98.63,31.37c35.03-2.01,70.43-23.44,80.94-56.93"/>
				<path class="st4" d="M93.57,512.96c15.26-21.17,31.89-41.35,49.7-60.39c7.92-8.46,16.29-16.87,26.72-21.95
					c20.95-10.2,45.07-5.02,66.69,5.03c5.89,2.73,11.6,5.83,17.01,9.07c23.26,13.95,44.84,30.7,64.16,49.75
					c19.14,18.88,36.31,40.42,59.36,54.57c12.92,7.93,28.23,13.36,43.3,14.34c13.13,0.85,26.16-1.77,37.06-9.22
					c1.95-1.33,3.79-2.79,5.52-4.36c10.69-9.71,17.18-23.67,20.02-37.96c0.91-4.59,1.48-9.22,1.79-13.87
					c0.8-12.13-0.14-24.4-1.53-36.39c-2.19-19.03-5.1-38.51,1.48-56.29c6.54-17.66,23.33-31.39,42.18-33.46
					c26.82-2.94,50.49,15.08,73.13,29.09c1.78,1.1,3.59,2.19,5.4,3.25c27.48,16.08,58.59,27.23,90.18,24.67
					c33.69-2.73,67.47-24.04,77.23-56.77"/>
				<path class="st5" d="M97.2,520.15c14.98-20.82,31.38-40.59,49.01-59.17c7.83-8.26,16.12-16.44,26.36-21.44
					c20.57-10.04,44.21-5.36,65.48,4.03c5.8,2.55,11.43,5.46,16.78,8.51c22.98,13.14,44.38,29.06,63.62,47.27
					c19.06,18.05,36.17,38.83,58.96,52.46c13.41,8.02,29.12,13.68,44.66,14.9c13.5,1.05,27.01-1.41,38.31-8.91
					c2.02-1.34,3.94-2.82,5.75-4.43c11.14-9.89,17.79-24.28,20.85-39.02c0.98-4.73,1.62-9.5,2.01-14.27
					c1.02-12.46,0.46-25.09-0.44-37.37c-1.38-19.53-2.85-39.17,4.49-56.94c6.97-16.87,23.09-30.21,41.48-32.33
					c26.17-3.01,49.35,13.91,71.48,26.86c1.74,1.02,3.51,2.02,5.28,3c26.83,14.82,56.93,24.71,87.27,21.48
					c32.34-3.44,64.51-24.64,73.52-56.61"/>
				<path class="st6" d="M100.82,527.33c14.7-20.46,30.88-39.83,48.31-57.95c7.75-8.05,15.94-16.01,26-20.92
					c20.2-9.87,43.35-5.7,64.28,3.04c5.72,2.38,11.27,5.09,16.56,7.95c22.7,12.32,43.92,27.41,63.08,44.79
					c18.98,17.22,36.05,37.23,58.57,50.35c13.91,8.1,30.01,14,46.01,15.46c13.87,1.25,27.87-1.06,39.57-8.61
					c2.1-1.35,4.09-2.85,5.97-4.49c11.58-10.08,18.39-24.89,21.67-40.08c1.05-4.86,1.76-9.77,2.24-14.67
					c1.24-12.8,1.05-25.77,0.64-38.35c-0.58-20.04-0.63-39.8,7.5-57.58c7.35-16.08,22.85-29.02,40.79-31.19
					c25.52-3.08,48.21,12.74,69.83,24.63c1.7,0.94,3.42,1.86,5.16,2.75c26.19,13.55,55.28,22.18,84.35,18.28
					c30.99-4.15,61.54-25.24,69.8-56.45"/>
				<path class="st7" d="M104.45,534.52c14.41-20.11,30.38-39.08,47.62-56.74c7.66-7.85,15.76-15.57,25.63-20.41
					c19.82-9.7,42.49-6.04,63.08,2.05c5.63,2.2,11.11,4.72,16.33,7.39c22.42,11.51,43.46,25.77,62.54,42.31
					c18.89,16.39,35.93,35.61,58.17,48.24c14.41,8.18,30.9,14.31,47.36,16.02c14.24,1.46,28.72-0.7,40.82-8.31
					c2.17-1.36,4.24-2.88,6.19-4.55c12.03-10.27,19-25.51,22.49-41.15c1.11-5,1.9-10.04,2.46-15.07
					c1.47-13.13,1.64-26.45,1.73-39.33c0.22-20.55,1.56-40.41,10.5-58.22c7.69-15.3,22.62-27.84,40.09-30.05
					c24.87-3.15,47.07,11.56,68.18,22.4c1.66,0.85,3.34,1.69,5.03,2.5c25.54,12.29,53.63,19.66,81.44,15.09
					c29.64-4.86,58.58-25.84,66.09-56.29"/>
				<path class="st8" d="M108.08,541.71c14.13-19.76,29.88-38.32,46.93-55.52c7.57-7.64,15.58-15.14,25.27-19.89
					c19.45-9.53,41.63-6.38,61.88,1.06c5.54,2.02,10.94,4.35,16.1,6.84c22.14,10.69,42.99,24.13,61.99,39.83
					c18.81,15.55,35.82,33.98,57.77,46.12c14.91,8.25,31.79,14.63,48.71,16.58c14.61,1.66,29.57-0.34,42.08-8
					c2.25-1.37,4.39-2.91,6.42-4.61c12.48-10.45,19.6-26.12,23.32-42.21c1.18-5.13,2.04-10.32,2.69-15.47
					c1.69-13.46,2.21-27.14,2.82-40.32c0.98-21.06,3.72-41.02,13.51-58.86c7.98-14.52,22.38-26.65,39.39-28.92
					c24.22-3.22,45.93,10.39,66.53,20.17c1.62,0.77,3.26,1.52,4.91,2.25c24.89,11.03,51.98,17.13,78.52,11.89
					c28.3-5.57,55.61-26.45,62.38-56.13"/>
				<path class="st9" d="M111.71,548.9c13.85-19.41,29.38-37.57,46.23-54.3c7.48-7.43,15.4-14.71,24.91-19.38
					c19.07-9.36,40.77-6.72,60.68,0.06c5.46,1.84,10.78,3.98,15.88,6.28c21.86,9.88,42.53,22.49,61.45,37.34
					c18.73,14.72,35.72,32.33,57.38,44.01c15.42,8.32,32.69,14.95,50.06,17.14c14.98,1.87,30.42,0.02,43.34-7.7
					c2.33-1.39,4.54-2.94,6.64-4.67c12.92-10.64,20.21-26.73,24.14-43.27c1.25-5.27,2.18-10.59,2.91-15.87
					c1.91-13.8,2.8-27.82,3.91-41.3c1.78-21.58,5.84-41.62,16.52-59.5c8.22-13.76,22.14-25.47,38.7-27.78
					c23.57-3.29,44.79,9.22,64.88,17.93c1.58,0.69,3.18,1.35,4.78,2c24.25,9.76,50.33,14.61,75.61,8.7
					c26.95-6.29,52.65-27.05,58.67-55.97"/>
				<path class="st10" d="M115.34,556.08c13.56-19.06,28.88-36.81,45.54-53.08c7.4-7.23,15.22-14.28,24.55-18.87
					c18.7-9.19,39.92-7.06,59.48-0.93c5.37,1.66,10.61,3.62,15.65,5.72c21.58,9.06,42.07,20.84,60.91,34.86
					c18.65,13.89,35.63,30.68,56.98,41.9c15.94,8.38,33.58,15.27,51.41,17.7c15.35,2.07,31.28,0.37,44.59-7.39
					c2.4-1.4,4.69-2.97,6.86-4.73c13.37-10.82,20.81-27.35,24.96-44.33c1.32-5.41,2.32-10.86,3.14-16.27
					c2.14-14.13,3.39-28.51,5-42.28c2.58-22.09,7.93-42.22,19.53-60.14c8.42-13.01,21.91-24.28,38-26.64
					c22.91-3.36,43.65,8.05,63.23,15.7c1.54,0.6,3.1,1.19,4.66,1.75c23.6,8.5,48.68,12.08,72.69,5.5c25.6-7,49.69-27.65,54.95-55.81
					"/>
				<path class="st11" d="M118.96,563.27c13.28-18.71,28.38-36.06,44.84-51.87c7.31-7.02,15.04-13.85,24.18-18.35
					c18.33-9.02,39.05-7.36,58.27-1.92c5.28,1.49,10.45,3.25,15.43,5.16c21.3,8.25,41.61,19.2,60.37,32.38
					c18.57,13.06,35.55,29.01,56.59,39.79c16.45,8.44,34.47,15.58,52.76,18.26c15.72,2.28,32.13,0.73,45.85-7.09
					c2.48-1.41,4.84-3.01,7.09-4.79c13.81-11.01,21.42-27.96,25.79-45.39c1.39-5.54,2.46-11.13,3.36-16.67
					c2.36-14.47,3.98-29.19,6.08-43.26c3.38-22.6,9.98-42.82,22.54-60.79c8.58-12.27,21.67-23.1,37.3-25.51
					c22.26-3.43,42.51,6.88,61.58,13.47c1.5,0.52,3.01,1.02,4.53,1.5c22.95,7.24,47.02,9.56,69.78,2.31
					c24.25-7.71,46.72-28.25,51.24-55.65"/>
				<path class="st12" d="M122.59,570.46c13-18.36,27.87-35.3,44.15-50.65c7.22-6.82,14.86-13.42,23.82-17.84
					c17.95-8.85,38.19-7.7,57.07-2.91c5.19,1.31,10.28,2.88,15.2,4.6c21.02,7.43,41.14,17.56,59.83,29.9
					c18.49,12.22,35.47,27.33,56.19,37.68c16.98,8.49,35.36,15.9,54.12,18.82c16.09,2.48,32.98,1.09,47.11-6.78
					c2.55-1.42,5-3.04,7.31-4.85c14.26-11.2,22.02-28.58,26.61-46.45c1.45-5.68,2.6-11.41,3.59-17.07
					c2.58-14.8,4.57-29.88,7.17-44.24c4.18-23.11,11.99-43.44,25.55-61.43c8.7-11.55,21.44-21.91,36.61-24.37
					c21.61-3.5,41.38,5.7,59.93,11.24c1.46,0.44,2.93,0.85,4.41,1.25c22.31,5.98,45.37,7.03,66.86-0.89
					c22.91-8.42,43.76-28.85,47.53-55.49"/>
				<path class="st13" d="M126.22,577.65c12.71-18.01,27.37-34.55,43.46-49.43c7.14-6.61,14.68-12.99,23.46-17.32
					c17.58-8.69,37.33-8.03,55.87-3.91c5.1,1.14,10.12,2.51,14.98,4.04c20.74,6.62,40.68,15.92,59.29,27.42
					c18.4,11.39,35.4,25.64,55.8,35.57c17.5,8.53,36.25,16.22,55.47,19.38c16.46,2.69,33.83,1.44,48.36-6.48
					c2.63-1.43,5.15-3.07,7.53-4.91c14.71-11.38,22.63-29.19,27.43-47.52c1.52-5.81,2.74-11.68,3.82-17.47
					c2.81-15.14,5.17-30.56,8.26-45.22c4.99-23.62,13.96-44.08,28.56-62.07c8.8-10.85,21.2-20.73,35.91-23.23
					c20.96-3.57,40.24,4.53,58.27,9.01c1.42,0.35,2.85,0.69,4.28,1c21.66,4.71,43.72,4.51,63.95-4.08
					c21.56-9.14,40.79-29.45,43.81-55.33"/>
				<path class="st14" d="M129.85,584.83c12.43-17.66,26.87-33.79,42.76-48.22c7.05-6.4,14.5-12.55,23.09-16.81
					c17.2-8.52,36.47-8.37,54.67-4.9c5.02,0.96,9.96,2.14,14.75,3.49c20.46,5.8,40.22,14.27,58.74,24.93
					c18.32,10.56,35.33,23.93,55.4,33.46c18.03,8.56,37.15,16.53,56.82,19.94c16.83,2.89,34.69,1.8,49.62-6.18
					c2.71-1.44,5.3-3.1,7.76-4.98c15.15-11.57,23.23-29.8,28.26-48.58c1.59-5.95,2.88-11.95,4.04-17.87
					c3.03-15.47,5.76-31.25,9.35-46.2c5.79-24.13,15.9-44.75,31.56-62.71c8.87-10.17,20.96-19.55,35.21-22.1
					c20.31-3.64,39.1,3.36,56.62,6.78c1.38,0.27,2.77,0.52,4.16,0.75c21.01,3.45,42.07,1.98,61.03-7.28
					c20.21-9.85,37.83-30.05,40.1-55.17"/>
				<path class="st15" d="M133.48,592.02c12.14-17.31,26.37-33.03,42.07-47c6.96-6.2,14.32-12.12,22.73-16.3
					c16.83-8.35,35.62-8.71,53.47-5.89c4.93,0.78,9.79,1.77,14.53,2.93c20.18,4.99,39.76,12.63,58.2,22.45
					c18.24,9.73,35.27,22.23,55,31.35c18.57,8.58,38.04,16.85,58.17,20.5c17.2,3.1,35.54,2.16,50.87-5.87
					c2.78-1.45,5.45-3.13,7.98-5.04c15.6-11.76,23.84-30.42,29.08-49.64c1.66-6.08,3.02-12.23,4.27-18.27
					c3.25-15.8,6.38-31.92,10.44-47.18c6.64-24.63,17.79-45.46,34.57-63.35c8.91-9.5,20.73-18.36,34.52-20.96
					c19.66-3.71,37.96,2.19,54.97,4.55c1.34,0.19,2.69,0.35,4.03,0.5c20.36,2.19,40.42-0.54,58.12-10.47
					c18.86-10.56,34.86-30.65,36.39-55.01"/>
				<path class="st16" d="M137.11,599.21c11.86-16.96,25.87-32.28,41.37-45.78c6.88-5.99,14.14-11.69,22.37-15.78
					c16.45-8.18,34.76-9.05,52.27-6.89c4.84,0.6,9.63,1.41,14.3,2.37c19.9,4.18,39.3,10.99,57.66,19.97
					c18.16,8.9,35.21,20.51,54.61,29.24c19.1,8.6,38.93,17.17,59.52,21.06c17.57,3.3,36.39,2.52,52.13-5.57
					c2.86-1.46,5.6-3.16,8.2-5.1c16.05-11.94,24.44-31.03,29.9-50.7c1.72-6.22,3.16-12.5,4.49-18.67
					c3.47-16.14,6.97-32.61,11.52-48.16c7.45-25.14,19.64-46.21,37.58-63.99c8.94-8.86,20.49-17.18,33.82-19.82
					c19.01-3.78,36.82,1.02,53.32,2.32c1.3,0.1,2.61,0.19,3.91,0.25c19.72,0.92,38.77-3.07,55.21-13.67
					c17.52-11.27,31.9-31.25,32.67-54.85"/>
				<path class="st17" d="M140.73,606.4c11.58-16.61,25.37-31.52,40.68-44.56c6.79-5.79,13.96-11.26,22-15.27
					c16.08-8.01,33.9-9.39,51.06-7.88c4.76,0.42,9.46,1.04,14.07,1.81c19.62,3.36,38.83,9.35,57.12,17.49
					c18.08,8.06,35.16,18.78,54.21,27.13c19.64,8.6,39.82,17.48,60.87,21.62c17.93,3.5,37.24,2.87,53.39-5.26
					c2.93-1.48,5.75-3.19,8.43-5.16c16.49-12.13,25.05-31.65,30.73-51.76c1.79-6.35,3.3-12.77,4.72-19.07
					c3.7-16.47,7.57-33.29,12.61-49.14c8.25-25.65,21.45-47.02,40.59-64.63c8.95-8.24,20.25-15.99,33.13-18.68
					c18.36-3.85,35.68-0.16,51.67,0.09c1.26,0.02,2.52,0.02,3.78,0c19.07-0.34,37.11-5.59,52.29-16.86
					c16.17-11.98,28.94-31.85,28.96-54.69"/>
				<path class="st18" d="M144.36,613.58c11.29-16.25,24.87-30.77,39.99-43.35c6.7-5.58,13.78-10.83,21.64-14.76
					c15.7-7.84,33.05-9.74,49.86-8.87c4.67,0.24,9.3,0.67,13.85,1.25c19.34,2.55,38.37,7.7,56.58,15.01
					c18,7.23,35.1,17.05,53.82,25.02c20.19,8.6,40.71,17.8,62.22,22.18c18.3,3.71,38.1,3.23,54.64-4.96
					c3.01-1.49,5.9-3.22,8.65-5.22c16.94-12.31,25.65-32.26,31.55-52.83c1.86-6.49,3.44-13.04,4.94-19.47
					c3.92-16.81,8.16-33.98,13.7-50.12c9.05-26.16,23.22-47.88,43.6-65.28c8.96-7.65,20.02-14.81,32.43-17.55
					c17.71-3.92,34.54-1.33,50.02-2.14c1.22-0.06,2.44-0.15,3.66-0.25c18.42-1.6,35.46-8.12,49.38-20.06
					c14.82-12.7,25.97-32.45,25.25-54.53"/>
				<path class="st19" d="M147.99,620.77c11.01-15.9,24.36-30.01,39.29-42.13c6.62-5.37,13.6-10.4,21.28-14.24
					c15.33-7.67,32.19-10.08,48.66-9.86c4.58,0.06,9.13,0.3,13.62,0.69c19.06,1.73,37.91,6.06,56.03,12.53
					c17.91,6.4,35.05,15.31,53.42,22.91c20.74,8.58,41.6,18.12,63.58,22.74c18.67,3.91,38.95,3.59,55.9-4.65
					c3.09-1.5,6.05-3.25,8.87-5.28c17.38-12.5,26.26-32.87,32.37-53.89c1.93-6.63,3.58-13.32,5.17-19.87
					c4.14-17.14,8.75-34.66,14.79-51.1c9.85-26.66,24.95-48.82,46.61-65.92c8.95-7.07,19.78-13.62,31.73-16.41
					c17.05-3.99,33.4-2.5,48.37-4.37c1.18-0.15,2.36-0.32,3.53-0.5c17.78-2.86,33.81-10.64,46.46-23.25
					c13.47-13.41,23.01-33.05,21.54-54.37"/>
				<path class="st20" d="M151.62,627.96c10.73-15.55,23.86-29.26,38.6-40.91c6.53-5.17,13.42-9.97,20.92-13.73
					c14.96-7.5,31.33-10.43,47.46-10.86c4.5-0.12,8.97-0.07,13.4,0.14c18.78,0.92,37.45,4.42,55.49,10.04
					c17.83,5.57,35,13.56,53.02,20.79c21.29,8.55,42.5,18.43,64.93,23.3c19.04,4.12,39.8,3.95,57.16-4.35
					c3.16-1.51,6.2-3.28,9.1-5.34c17.83-12.69,26.86-33.49,33.2-54.95c1.99-6.76,3.72-13.59,5.39-20.27
					c4.37-17.48,9.35-35.34,15.87-52.08c10.66-27.17,26.65-49.84,49.61-66.56c8.95-6.52,19.54-12.44,31.04-15.27
					c16.4-4.06,32.26-3.67,46.72-6.6c1.14-0.23,2.28-0.48,3.41-0.75c17.13-4.13,32.16-13.17,43.55-26.45
					c12.13-14.12,20.04-33.65,17.82-54.21"/>
				<path class="st21" d="M155.25,635.14c10.44-15.2,23.36-28.5,37.9-39.7c6.44-4.96,13.24-9.53,20.55-13.21
					c14.58-7.34,30.47-10.8,46.26-11.85c4.41-0.31,8.81-0.44,13.17-0.42c18.5,0.1,36.98,2.78,54.95,7.56
					c17.75,4.73,34.95,11.8,52.63,18.68c21.85,8.51,43.39,18.75,66.28,23.86c19.41,4.32,40.65,4.3,58.41-4.05
					c3.24-1.52,6.36-3.31,9.32-5.4c18.28-12.87,27.47-34.1,34.02-56.01c2.06-6.9,3.86-13.86,5.62-20.67
					c4.59-17.81,9.94-36.03,16.96-53.06c11.46-27.68,28.31-50.95,52.62-67.2c8.95-5.98,19.31-11.25,30.34-14.14
					c15.75-4.13,31.12-4.84,45.07-8.83c1.1-0.31,2.2-0.65,3.29-1.01c16.48-5.39,30.51-15.69,40.63-29.64
					c10.78-14.83,17.08-34.25,14.11-54.05"/>
				<path class="st22" d="M158.87,642.33c10.16-14.85,22.86-27.75,37.21-38.48c6.36-4.76,13.06-9.1,20.19-12.7
					c14.21-7.17,29.61-11.14,45.06-12.84c4.32-0.49,8.64-0.8,12.95-0.98c18.22-0.71,36.52,1.13,54.41,5.08
					c17.67,3.9,34.9,10.04,52.23,16.57c22.41,8.45,44.28,19.07,67.63,24.42c19.78,4.53,41.5,4.66,59.67-3.74
					c3.31-1.53,6.51-3.35,9.54-5.46c18.72-13.06,28.07-34.72,34.84-57.07c2.13-7.03,4-14.14,5.84-21.07
					c4.81-18.14,10.53-36.71,18.05-54.04c12.26-28.19,29.95-52.15,55.63-67.84c8.95-5.47,19.07-10.07,29.64-13
					c15.1-4.19,29.99-6.02,43.42-11.06c1.06-0.4,2.11-0.82,3.16-1.26c15.84-6.65,28.86-18.22,37.72-32.84
					c9.43-15.54,14.11-34.85,10.4-53.89"/>
				<path class="st23" d="M162.5,649.52c9.87-14.5,22.36-26.99,36.52-37.26c6.27-4.55,12.88-8.67,19.83-12.19
					c13.83-7,28.76-11.48,43.85-13.83c4.23-0.67,8.48-1.17,12.72-1.54c17.94-1.53,36.06-0.51,53.87,2.6
					c17.59,3.07,34.86,8.27,51.84,14.46c22.98,8.37,45.17,19.39,68.98,24.98c20.15,4.73,42.36,5.02,60.92-3.44
					c3.39-1.54,6.66-3.38,9.77-5.53c19.17-13.24,28.68-35.33,35.67-58.13c2.2-7.17,4.14-14.41,6.07-21.47
					c5.04-18.48,11.12-37.39,19.14-55.02c13.07-28.7,31.58-53.45,58.64-68.48c8.97-4.98,18.83-8.88,28.95-11.86
					c14.45-4.26,28.85-7.19,41.77-13.29c1.02-0.48,2.03-0.98,3.04-1.51c15.19-7.91,27.2-20.74,34.8-36.03
					c8.08-16.26,11.15-35.45,6.68-53.73"/>
				<path class="st24" d="M166.13,656.71c22.29-32.88,59.02-54.61,97.94-62.54s79.79-2.81,117.26,10.37
					c23.55,8.28,46.06,19.7,70.33,25.54c24.27,5.84,51.58,5.38,72.17-8.72c25.78-17.65,34.37-50.98,42.79-81.07
					c13.83-49.48,35.95-102.09,81.87-125.12c22.87-11.47,49.64-14.35,71.28-28.01c30-18.94,44.98-58.8,34.86-92.8"/>
			</g>
			<g>
				<path class="st24" d="M-42.36,511.03c-4.21-34,29.36-62.73,63.21-68.02c33.85-5.28,67.81,5.62,101.35,12.61
					s71.28,9.3,99.3-10.42c35.82-25.21,44.11-78.24,80.96-101.92c28.72-18.46,66.11-12.93,95.54,0.8
					c16.64,7.76,30.79,20.82,46.69,29.92c72.12,41.26,76.99,125.56,138.26,138.14c66.35,13.61,102.35-18.74,114.87-41.17
					c16.04-28.74,42.78-103.3-22.75-155.12c-26.62-21.05-52.91-43.49-72.49-71.21c-29.32-41.5-29.12-104.94,8.37-139.24
					c25.7-23.5,65.17-32.09,82.63-62.23c11.73-20.25,10.13-46.36,0.04-67.49c-10.09-21.12-27.66-37.83-46.74-51.37"/>
				<path class="st23" d="M-40.84,512.73c-2.9-34.98,30.48-65.2,65.34-71.21c34.03-5.87,68.55,4.95,102.09,12.66
					c33.15,7.62,69.95,11.08,97.88-6.84c35.68-22.94,45.71-73.28,82.51-96.65c29.32-18.52,66.11-15.07,96.24-3.07
					c17.31,6.9,32.65,19.2,49.3,28.43c70.61,39.12,76.42,120.69,136.36,133.09c64.47,13.31,100.28-17.3,113.29-39.38
					c16.49-27.98,42-99.82-19.92-151.05c-25.53-21.12-50.85-43.99-70.11-71.53c-28.46-40.51-28.72-101.7,6.67-135.7
					c24.49-23.52,62.54-33.1,79.92-62.85c11.93-20.33,11.2-46.07,2.38-67.35c-8.89-21.48-25.12-39.13-43.46-53.67"/>
				<path class="st22" d="M-39.32,514.42c-1.6-35.95,31.6-67.66,67.47-74.41c34.2-6.44,69.28,4.27,102.83,12.72
					c32.76,8.25,68.63,12.86,96.47-3.27c35.53-20.66,47.26-68.4,84.07-91.37c29.87-18.64,66.15-17.24,96.95-6.94
					c18,6.02,34.5,17.59,51.91,26.94c69.03,37.08,75.84,115.81,134.45,128.04c62.6,13.01,98.2-15.87,111.71-37.59
					c16.93-27.21,41.23-96.38-17.08-146.97c-24.44-21.2-48.79-44.49-67.74-71.86c-27.59-39.53-28.31-98.48,4.97-132.15
					c23.28-23.55,59.91-34.11,77.22-63.46c12.13-20.42,12.27-45.8,4.73-67.22c-7.7-21.85-22.58-40.44-40.18-55.97"/>
				<path class="st21" d="M-37.8,516.12c-0.3-36.93,32.71-70.1,69.6-77.61c34.38-7,70.02,3.58,103.57,12.77
					c32.36,8.86,67.3,14.65,95.05,0.31c35.39-18.39,48.84-63.46,85.63-86.09c30.45-18.73,66.22-19.43,97.65-10.81
					c18.71,5.13,36.34,15.98,54.53,25.46c67.39,35.12,75.27,110.93,132.55,122.99c60.73,12.71,96.12-14.44,110.13-35.8
					c17.35-26.46,40.47-93-14.25-142.9c-23.37-21.31-46.65-45.04-65.36-72.19c-26.62-38.62-27.91-95.28,3.28-128.61
					c22.07-23.59,57.21-35.16,74.51-64.08c12.28-20.53,13.36-45.54,7.07-67.08c-6.5-22.24-20.04-41.74-36.89-58.27"/>
				<path class="st20" d="M-36.28,517.82c1-37.91,33.83-72.53,71.73-80.8c34.56-7.54,70.75,2.88,104.31,12.83
					c31.97,9.47,65.97,16.43,93.64,3.89c35.24-16.12,50.42-58.53,87.18-80.81c31.03-18.82,66.32-21.65,98.36-14.67
					c19.43,4.23,38.18,14.38,57.14,23.97c65.7,33.24,74.7,106.06,130.65,117.94c58.86,12.4,94.02-13.01,108.55-34.01
					c17.77-25.7,39.72-89.67-11.42-138.82c-22.3-21.43-44.56-45.55-62.99-72.52c-25.72-37.66-27.51-92.1,1.58-125.07
					c20.87-23.65,54.56-36.17,71.8-64.7c12.46-20.62,14.46-45.3,9.41-66.95c-5.28-22.65-17.5-43.04-33.61-60.57"/>
				<path class="st19" d="M-34.76,519.51c2.31-38.88,34.95-74.96,73.86-84c34.74-8.07,71.48,2.18,105.05,12.88
					c31.58,10.07,64.67,18.27,92.22,7.47c35.13-13.77,52.01-53.58,88.74-75.54c31.62-18.9,66.44-23.9,99.06-18.54
					c20.17,3.31,40.01,12.78,59.75,22.48c63.96,31.44,74.13,101.18,128.74,112.89c56.99,12.1,91.93-11.58,106.97-32.22
					c18.18-24.95,38.98-86.41-8.59-134.74c-21.23-21.57-42.48-46.07-60.61-72.85c-24.83-36.69-27.12-88.95-0.12-121.53
					c19.66-23.73,51.91-37.19,69.1-65.31c12.65-20.7,15.57-45.07,11.75-66.82c-4.06-23.08-14.97-44.35-30.32-62.87"/>
				<path class="st18" d="M-33.24,521.21c3.61-39.86,36.07-77.37,75.99-87.2c34.92-8.59,72.22,1.47,105.8,12.94
					c31.19,10.66,63.34,20.06,90.81,11.05c34.98-11.49,53.6-48.64,90.29-70.26c32.2-18.98,66.57-26.18,99.77-22.41
					c20.91,2.38,41.83,11.19,62.36,20.99c62.19,29.7,73.56,96.31,126.84,107.84c55.11,11.8,89.82-10.15,105.39-30.43
					c18.58-24.2,38.27-83.22-5.76-130.67c-20.17-21.74-40.4-46.58-58.23-73.18c-23.94-35.72-26.74-85.83-1.82-117.99
					c18.46-23.82,49.27-38.2,66.39-65.93c12.84-20.79,16.7-44.86,14.09-66.68c-2.82-23.51-12.43-45.65-27.04-65.17"/>
				<path class="st17" d="M-31.72,522.91c4.91-40.83,37.2-79.77,78.12-90.39c35.1-9.11,72.95,0.74,106.54,13
					c30.8,11.23,62.01,21.86,89.39,14.62c34.84-9.2,55.19-43.68,91.85-64.98c32.79-19.06,66.71-28.5,100.47-26.28
					c21.66,1.42,43.65,9.61,64.97,19.5c60.38,28.02,72.99,91.43,124.93,102.79c53.24,11.5,87.71-8.73,103.8-28.64
					c18.97-23.45,37.59-80.09-2.92-126.59c-19.11-21.94-38.32-47.09-55.86-73.51c-23.06-34.75-26.37-82.74-3.52-114.45
					c17.25-23.94,46.63-39.21,63.69-66.55c13.03-20.88,17.85-44.65,16.43-66.55c-1.56-23.96-9.89-46.96-23.76-67.47"/>
				<path class="st16" d="M-30.2,524.61c6.21-41.81,38.32-82.17,80.25-93.59c35.29-9.61,73.69,0.01,107.28,13.05
					c30.41,11.8,60.68,23.65,87.97,18.2c34.69-6.92,56.79-38.73,93.4-59.7c33.38-19.13,66.85-30.84,101.18-30.15
					c22.41,0.45,45.46,8.04,67.59,18.02c58.54,26.4,72.42,86.55,123.03,97.74c51.37,11.19,85.59-7.31,102.22-26.85
					c19.34-22.71,36.95-77.05-0.09-122.52c-18.05-22.16-36.25-47.6-53.48-73.84c-22.18-33.77-26.02-79.68-5.22-110.91
					c16.03-24.07,43.99-40.23,60.98-67.17c13.22-20.96,19.02-44.45,18.77-66.41c-0.28-24.41-7.35-48.26-20.47-69.77"/>
				<path class="st15" d="M-28.68,526.3c7.52-42.79,39.45-84.55,82.38-96.78c35.47-10.11,74.43-0.73,108.02,13.11
					c30.02,12.36,59.35,25.44,86.56,21.78c34.54-4.64,58.39-33.77,94.96-54.43c33.98-19.2,67-33.21,101.88-34.01
					c23.17-0.54,47.26,6.48,70.2,16.53c56.68,24.83,71.84,81.68,121.13,92.69c49.5,10.89,83.46-5.89,100.64-25.05
					c19.71-21.98,36.36-74.08,2.74-118.44c-16.98-22.41-34.17-48.1-51.11-74.17c-21.3-32.8-25.69-76.65-6.92-107.37
					c14.81-24.23,41.36-41.24,58.28-67.78c13.42-21.05,20.2-44.25,21.11-66.28c1.02-24.86-4.82-49.57-17.19-72.07"/>
				<path class="st14" d="M-27.16,528c8.82-43.76,40.58-86.93,84.51-99.98c35.66-10.59,75.17-1.48,108.76,13.16
					c29.64,12.92,58.02,27.22,85.14,25.36c34.39-2.36,59.99-28.8,96.51-49.15c34.57-19.26,67.14-35.6,102.59-37.88
					c23.92-1.54,49.06,4.94,72.81,15.04c54.79,23.31,71.27,76.8,119.22,87.65c47.63,10.59,81.32-4.48,99.06-23.26
					c20.07-21.25,35.82-71.19,5.57-114.37c-15.9-22.7-32.1-48.61-48.73-74.5c-20.43-31.82-25.39-73.65-8.62-103.83
					c13.57-24.41,38.73-42.24,55.57-68.4c13.61-21.13,21.41-44.05,23.45-66.15c2.34-25.31-2.28-50.87-13.91-74.37"/>
				<path class="st13" d="M-25.64,529.7c10.12-44.74,41.71-89.29,86.64-103.18c35.85-11.08,75.92-2.23,109.5,13.22
					c29.26,13.46,56.68,29.01,83.73,28.94c34.23-0.09,61.59-23.83,98.07-43.87c35.17-19.32,67.28-38.01,103.29-41.75
					c24.67-2.56,50.85,3.41,75.42,13.55c52.88,21.83,70.7,71.92,117.32,82.6c45.75,10.29,79.18-3.08,97.48-21.47
					c20.43-20.53,35.35-68.38,8.41-110.29c-14.8-23.02-30.04-49.11-46.36-74.83c-19.56-30.83-25.12-70.68-10.32-100.29
					c12.3-24.61,36.1-43.25,52.87-69.02c13.81-21.22,22.63-43.85,25.79-66.01c3.68-25.76,0.26-52.18-10.62-76.67"/>
				<path class="st12" d="M-24.12,531.4c11.43-45.71,42.84-91.65,88.77-106.37c36.04-11.55,76.67-3,110.24,13.27
					c28.89,14,55.35,30.79,82.31,32.52c34.08,2.18,63.2-18.86,99.62-38.6c35.77-19.38,67.41-40.44,104-45.62
					c25.41-3.59,52.63,1.9,78.03,12.07c50.96,20.39,70.11,67.14,115.42,77.55c43.86,10.07,77.03-1.68,95.9-19.68
					c20.77-19.82,34.96-65.65,11.24-106.22c-13.67-23.38-27.97-49.61-43.98-75.16c-18.7-29.84-24.89-67.74-12.02-96.74
					c11.02-24.83,33.47-44.25,50.16-69.63c14.01-21.3,23.86-43.64,28.13-65.88c5.03-26.21,2.8-53.48-7.34-78.97"/>
				<path class="st11" d="M-22.6,533.09c12.73-46.69,43.98-94,90.9-109.57c36.24-12.02,77.42-3.77,110.98,13.33
					c28.51,14.53,54.02,32.57,80.89,36.09c33.93,4.45,64.81-13.88,101.18-33.32c36.37-19.43,67.53-42.89,104.7-49.48
					c26.15-4.64,54.4,0.41,80.64,10.58c49.02,18.98,69.54,62.27,113.51,72.5c41.99,9.77,74.88-0.29,94.32-17.89
					c21.11-19.11,34.66-62.99,14.07-102.14c-12.5-23.78-25.91-50.11-41.6-75.49c-17.84-28.86-24.7-64.82-13.72-93.2
					c9.7-25.07,30.84-45.26,47.46-70.25c14.21-21.38,25.11-43.42,30.47-65.74c6.4-26.64,5.34-54.79-4.05-81.27"/>
				<path class="st10" d="M-21.07,534.79c14.03-47.66,45.12-96.34,93.03-112.77c36.44-12.49,78.18-4.56,111.72,13.39
					c28.15,15.06,52.69,34.34,79.48,39.67c33.78,6.72,66.42-8.9,102.73-28.04c36.97-19.48,67.64-45.35,105.41-53.35
					c26.88-5.69,56.16-1.05,83.26,9.09c47.07,17.62,68.97,57.39,111.61,67.45c40.12,9.47,72.72,1.09,92.74-16.1
					c21.45-18.42,34.46-60.39,16.9-98.06c-11.28-24.2-23.85-50.6-39.23-75.82c-16.99-27.86-24.55-61.92-15.42-89.66
					c8.34-25.33,28.22-46.26,44.75-70.87c14.41-21.45,26.37-43.2,32.81-65.61c7.79-27.07,7.87-56.09-0.77-83.57"/>
				<path class="st9" d="M-19.55,536.49c15.33-48.64,46.27-98.68,95.16-115.96c36.64-12.95,78.95-5.35,112.46,13.44
					c27.78,15.58,51.36,36.12,78.06,43.25c33.63,8.98,68.03-3.92,104.29-22.76c37.58-19.53,67.74-47.82,106.11-57.22
					c27.61-6.76,57.92-2.49,85.87,7.6c45.11,16.28,68.39,52.51,109.7,62.4c38.25,9.16,70.55,2.47,91.16-14.31
					c21.78-17.73,34.37-57.84,19.73-93.99c-9.98-24.66-21.8-51.1-36.85-76.15c-16.14-26.87-24.45-59.03-17.12-86.12
					c6.93-25.6,25.6-47.26,42.04-71.48c14.62-21.53,27.63-42.97,35.16-65.48c9.19-27.48,10.41-57.39,2.51-85.87"/>
				<path class="st8" d="M-18.03,538.18c16.64-49.62,47.42-101.01,97.3-119.16c36.84-13.4,79.72-6.14,113.2,13.5
					c27.43,16.09,50.03,37.89,76.65,46.83c33.49,11.24,69.64,1.07,105.84-17.49c38.19-19.57,67.84-50.31,106.82-61.09
					c28.32-7.84,59.66-3.89,88.48,6.11c43.14,14.98,67.82,47.63,107.8,57.35c36.38,8.85,68.38,3.83,89.58-12.52
					c22.1-17.05,34.39-55.32,22.57-89.91c-8.6-25.15-19.76-51.59-34.48-76.48c-15.3-25.87-24.41-56.14-18.82-82.58
					c5.47-25.87,22.98-48.26,39.34-72.1c14.82-21.61,28.9-42.73,37.5-65.34c10.59-27.89,12.95-58.7,5.8-88.17"/>
				<path class="st7" d="M-16.51,539.88c17.94-50.59,48.57-103.33,99.43-122.35c37.04-13.86,80.5-6.95,113.94,13.55
					c27.07,16.6,48.72,39.62,75.23,50.41c33.37,13.44,71.25,6.06,107.4-12.21c38.8-19.61,67.92-52.79,107.52-64.96
					c29.03-8.92,61.4-5.26,91.09,4.63c41.17,13.7,67.27,42.67,105.9,52.3c34.52,8.47,66.21,5.19,88-10.73
					c22.42-16.38,34.53-52.81,25.4-85.84c-7.09-25.65-17.72-52.07-32.1-76.81c-14.46-24.87-24.41-53.25-20.52-79.04
					c3.95-26.14,20.36-49.26,36.63-72.72c15.03-21.68,30.18-42.48,39.84-65.21c12.01-28.28,15.49-60,9.08-90.47"/>
				<path class="st6" d="M-14.99,541.58C4.25,490.01,34.73,435.93,86.56,416.03c37.25-14.31,81.29-7.76,114.68,13.61
					c26.73,17.1,47.4,41.4,73.82,53.99c33.22,15.71,72.87,11.05,108.95-6.93c39.41-19.64,67.99-55.29,108.23-68.82
					c29.74-10,63.12-6.58,93.7,3.14c39.2,12.46,66.7,37.79,103.99,47.25c32.65,8.17,64.03,6.53,86.42-8.94
					c22.74-15.71,34.8-50.27,28.23-81.76c-5.46-26.15-15.68-52.55-29.73-77.14c-13.63-23.86-24.47-50.33-22.22-75.5
					c2.36-26.4,17.75-50.25,33.93-73.34c15.25-21.75,31.46-42.22,42.18-65.07c13.43-28.66,18.02-61.31,12.36-92.77"/>
				<path class="st5" d="M-13.47,543.28C7.07,490.73,37.41,435.32,90.21,414.53c37.46-14.75,82.08-8.58,115.42,13.66
					c26.38,17.6,46.07,43.18,72.4,57.56c33.08,17.98,74.52,16.12,110.51-1.65c40.06-19.59,68.06-57.79,108.93-72.69
					c30.43-11.1,64.84-7.85,96.32,1.65c37.23,11.23,66.13,32.91,102.09,42.2c30.78,7.87,61.85,7.87,84.84-7.15
					c23.06-15.06,35.19-47.67,31.06-77.69c-3.67-26.63-13.66-53.03-27.35-77.47c-12.8-22.85-24.57-47.39-23.92-71.96
					c0.71-26.63,15.18-51.22,31.22-73.95c15.5-21.79,32.75-41.95,44.52-64.94c14.86-29.03,20.56-62.61,15.65-95.07"/>
				<path class="st4" d="M-11.95,544.97C9.89,491.45,40.12,434.79,93.86,413.03c37.69-15.14,82.88-9.4,116.16,13.72
					c26.05,18.1,44.74,44.97,70.98,61.14c32.93,20.26,76.12,21.08,112.06,3.62c40.66-19.65,68.11-60.29,109.64-76.56
					c31.12-12.2,66.54-9.06,98.93,0.16c35.27,10.04,65.56,28.04,100.19,37.15c28.91,7.56,59.66,9.19,83.26-5.36
					c23.37-14.42,35.69-44.97,33.9-73.61c-1.7-27.06-11.65-53.5-24.97-77.79c-11.98-21.84-24.71-44.4-25.62-68.42
					c-1.01-26.82,12.55-52.22,28.52-74.57c15.7-21.88,34.03-41.67,46.86-64.81c16.29-29.39,23.1-63.92,18.93-97.37"/>
				<path class="st25" d="M-10.43,546.67c23.15-54.5,53.21-112.55,107.95-135.14c37.88-15.63,83.69-10.24,116.9,13.78
					c25.71,18.59,43.42,46.75,69.57,64.72c32.79,22.53,77.72,26.05,113.62,8.9c41.25-19.71,68.16-62.79,110.34-80.43
					c31.81-13.3,68.22-10.19,101.54-1.32c33.31,8.87,64.99,23.16,98.28,32.11c27.03,7.26,57.48,10.51,81.68-3.57
					c23.69-13.78,36.29-42.13,36.73-69.53c0.44-27.4-9.64-53.97-22.6-78.12c-11.17-20.83-24.89-41.36-27.32-64.87
					c-2.79-26.96,9.91-53.23,25.81-75.19c15.9-21.96,35.32-41.39,49.2-64.67c17.73-29.74,25.64-65.22,22.22-99.67"/>
			</g>
			<g>
				<path class="st25" d="M386.04,749.65c-29.14-18.02-30.5-62.18-13.41-91.88c17.09-29.7,46.86-49.33,73.32-71.1
					c26.46-21.77,51.9-49.73,54.09-83.93c2.79-43.71-33.35-83.4-28.72-126.96c3.61-33.95,31.34-59.63,60.48-73.97
					c16.48-8.11,35.52-10.95,52.57-17.65c77.34-30.37,146.1,18.66,194.29-21.22c52.18-43.18,49.52-91.51,39.88-115.32
					c-12.35-30.5-53.71-98.07-135.16-79.45c-33.09,7.56-67.04,13.99-100.91,11.89c-50.72-3.14-100.04-43.05-103.28-93.76
					c-2.22-34.75,15.81-70.9,3.26-103.39c-8.43-21.83-29.79-36.94-52.57-42.31c-22.78-5.37-46.81-2.14-69.33,4.25"/>
				<path class="st26" d="M388.31,749.53c-29.08-19.65-31.72-64.6-14.57-95.54c16.74-30.2,46.8-50.33,73.83-71.64
					c26.71-21.06,52.46-47.58,55.99-80.58c4.47-42.18-28.48-81.53-23.63-124.86c3.94-34.45,29.67-60.97,57.9-76.94
					c16.22-9.17,35.42-13.41,53.05-20.61c74.73-30.53,141.94,16.05,189.16-22.9c50.77-41.91,49.34-89,40.28-112.97
					c-11.47-30.38-51.49-95.28-130.21-79.11c-32.45,6.67-66.14,12.07-99.68,9.83c-49.41-3.2-97.26-41.33-101.58-90.21
					c-2.99-33.82,13.38-69.48,1.09-101.66c-8.37-22.04-28.89-37.59-51-44.05c-22.31-6.52-46.24-4.94-69.06,0.25"/>
				<path class="st27" d="M390.59,749.41c-29.03-21.28-32.94-67.01-15.73-99.21c16.41-30.69,46.73-51.33,74.34-72.18
					c26.95-20.36,53.02-45.43,57.89-77.24c6.15-40.64-23.7-79.68-18.55-122.77c4.19-34.96,28.01-62.36,55.33-79.91
					c15.97-10.26,35.32-15.87,53.52-23.58c72.14-30.57,137.78,13.44,184.03-24.58c49.36-40.64,49.15-86.48,40.69-110.62
					c-10.61-30.24-49.29-92.52-125.26-78.76c-31.84,5.77-65.24,10.15-98.45,7.77c-48.1-3.26-94.49-39.63-99.89-86.67
					c-3.77-32.9,10.95-68.06-1.09-99.94c-8.31-22.24-28.01-38.26-49.43-45.79c-21.86-7.69-45.66-7.73-68.8-3.75"/>
				<path class="st28" d="M392.86,749.28c-28.97-22.9-34.14-69.42-16.88-102.87c16.09-31.18,46.66-52.33,74.84-72.73
					c27.19-19.67,53.58-43.28,59.79-73.89c7.84-39.1-18.87-77.82-13.46-120.67c4.48-35.47,26.35-63.79,52.76-82.88
					c15.72-11.37,35.22-18.32,54-26.55c69.59-30.52,133.62,10.83,178.9-26.26c47.95-39.37,48.96-83.96,41.09-108.26
					c-9.75-30.1-47.13-89.81-120.31-78.42c-31.25,4.86-64.33,8.14-97.22,5.72c-46.78-3.45-91.75-37.94-98.19-83.13
					c-4.56-31.98,8.44-66.61-3.27-98.22c-8.31-22.43-27.13-38.94-47.86-47.53c-21.41-8.87-45.09-10.53-68.53-7.75"/>
				<path class="st6" d="M395.14,749.16c-28.92-24.53-35.34-71.81-18.04-106.53c15.77-31.66,46.57-53.34,75.35-73.27
					c27.41-18.99,54.14-41.13,61.7-70.55c9.52-37.57-14.03-75.97-8.37-118.58c4.78-35.98,24.68-65.25,50.18-85.86
					c15.47-12.5,35.12-20.75,54.48-29.52c67.07-30.38,129.47,8.22,173.77-27.94c46.54-38.11,48.77-81.43,41.5-105.91
					c-8.9-29.95-45.01-87.14-115.35-78.07c-30.67,3.95-63.42,6.2-95.99,3.66c-45.47-3.54-89.02-36.26-96.5-79.59
					c-5.36-31.08,5.99-65.19-5.44-96.5c-8.26-22.63-26.25-39.65-46.29-49.28c-20.97-10.07-44.52-13.32-68.27-11.75"/>
				<path class="st7" d="M397.41,749.04c-28.86-26.16-36.53-74.2-19.2-110.19c15.47-32.13,46.48-54.35,75.86-73.81
					c27.63-18.31,54.76-38.96,63.6-67.2c11.27-36.01-9.18-74.11-3.28-116.49c5.08-36.49,22.99-66.76,47.61-88.83
					c15.22-13.64,35.03-23.18,54.95-32.49c64.58-30.16,125.31,5.61,168.65-29.62c45.13-36.84,48.57-78.9,41.9-103.56
					c-8.05-29.8-42.93-84.52-110.4-77.72c-30.12,3.03-62.52,4.25-94.76,1.6c-44.16-3.63-86.32-34.59-94.8-76.04
					c-6.18-30.19,3.54-63.76-7.62-94.78c-8.21-22.83-25.38-40.37-44.72-51.02c-20.53-11.3-43.94-16.12-68-15.75"/>
				<path class="st29" d="M399.69,748.92c-28.81-27.78-37.7-76.59-20.35-113.86c15.18-32.6,46.39-55.37,76.37-74.35
					c27.84-17.63,55.32-36.8,65.5-63.86c12.96-34.46-4.33-72.25,1.8-114.39c5.38-36.99,21.3-68.29,45.04-91.8
					c14.95-14.81,34.93-25.6,55.43-35.45c62.11-29.86,121.15,3,163.52-31.3c43.72-35.57,48.36-76.37,42.31-101.2
					c-7.22-29.64-40.88-81.96-105.45-77.38c-29.58,2.1-61.62,2.31-93.52-0.46c-42.84-3.72-83.65-32.93-93.11-72.5
					c-7.01-29.31,1.09-62.34-9.79-93.05c-8.16-23.03-24.5-41.12-43.15-52.76c-20.09-12.54-43.37-18.91-67.74-19.75"/>
				<path class="st30" d="M401.96,748.8c-28.75-29.41-38.87-78.97-21.51-117.52c14.89-33.06,46.28-56.39,76.87-74.9
					c28.05-16.97,55.89-34.64,67.4-60.51c14.65-32.92,0.53-70.39,6.89-112.3c5.69-37.5,19.58-69.85,42.46-94.77
					c14.68-15.99,34.84-28,55.91-38.42c59.67-29.5,116.99,0.39,158.39-32.98c42.32-34.3,48.14-73.83,42.71-98.85
					c-6.4-29.48-39.76-87.7-100.5-77.03c-28.66,5.03-60.71,0.37-92.29-2.52c-41.53-3.8-81.01-31.28-91.41-68.96
					c-7.85-28.44-1.35-60.91-11.97-91.33c-8.11-23.24-23.62-41.89-41.58-54.5c-19.65-13.8-42.8-21.71-67.47-23.75"/>
				<path class="st31" d="M404.24,748.68c-28.69-31.04-40.04-81.34-22.67-121.18c14.62-33.52,46.18-57.43,77.38-75.44
					c28.25-16.31,56.45-32.48,69.3-57.16c16.34-31.37,5.39-68.53,11.98-110.2c6.01-38,17.85-71.43,39.89-97.75
					c14.4-17.19,34.75-30.4,56.38-41.39c57.25-29.09,112.83-2.22,153.26-34.66c40.91-33.03,47.92-71.29,43.12-96.49
					c-5.58-29.31-37.64-85.97-95.55-76.69c-28.22,4.53-59.81-1.57-91.06-4.57c-40.22-3.87-78.41-29.64-89.72-65.41
					c-8.72-27.58-3.79-59.49-14.14-89.61c-8.06-23.44-22.73-42.67-40.01-56.24c-19.2-15.08-42.22-24.5-67.21-27.76"/>
				<path class="st10" d="M406.51,748.55c-28.64-32.66-41.19-83.72-23.82-124.85c14.35-33.98,46.06-58.47,77.89-75.98
					c28.45-15.65,57.01-30.32,71.2-53.82c18.02-29.83,10.26-66.66,17.07-108.11c6.32-38.51,16.09-73.02,37.32-100.72
					c14.1-18.39,34.66-32.78,56.86-44.36c54.86-28.62,108.67-4.83,148.13-36.34c39.5-31.76,47.69-68.74,43.52-94.14
					c-4.78-29.14-35.49-84.17-90.6-76.34c-27.84,3.96-58.9-3.5-89.83-6.63c-38.91-3.94-75.84-27.99-88.02-61.87
					c-9.61-26.72-6.23-58.07-16.32-87.89c-8-23.64-21.83-43.47-38.43-57.98c-18.74-16.37-41.65-27.3-66.95-31.76"/>
				<path class="st32" d="M408.79,748.43c-28.58-34.29-42.33-86.08-24.98-128.51c14.08-34.43,45.94-59.51,78.39-76.52
					c28.64-15.01,57.57-28.17,73.11-50.47c19.7-28.28,15.13-64.8,22.16-106.02c6.65-39.01,14.32-74.63,34.74-103.69
					c13.79-19.61,34.58-35.14,57.34-47.33c52.49-28.1,104.51-7.44,143.01-38.02c38.09-30.49,47.45-66.19,43.93-91.79
					c-3.99-28.96-33.3-82.28-85.65-75.99c-27.52,3.3-58-5.43-88.6-8.69c-37.6-4.01-73.31-26.35-86.33-58.33
					c-10.53-25.87-8.66-56.65-18.5-86.17c-7.94-23.85-20.92-44.28-36.86-59.72c-18.26-17.68-41.08-30.1-66.68-35.76"/>
				<path class="st33" d="M411.06,748.31c-28.53-35.92-43.47-88.45-26.14-132.17c13.83-34.88,45.82-60.57,78.9-77.06
					c28.83-14.37,58.12-26.01,75.01-47.13c21.38-26.74,20.01-62.94,27.24-103.92c6.97-39.52,12.52-76.25,32.17-106.66
					c13.46-20.83,34.51-37.49,57.81-50.29c50.14-27.54,100.35-10.05,137.88-39.7c36.68-29.22,47.21-63.64,44.34-89.43
					c-3.2-28.78-31.15-70.4-80.7-75.65c-27.22-2.89-57.09-7.36-87.37-10.75c-36.29-4.07-70.83-24.7-84.63-54.78
					c-11.47-25.01-11.1-55.23-20.67-84.44c-7.88-24.05-20-45.11-35.29-61.46c-17.78-19.01-40.51-32.89-66.42-39.76"/>
				<path class="st34" d="M413.34,748.19c-28.47-37.54-44.59-90.81-27.29-135.83c13.58-35.33,45.69-61.63,79.41-77.61
					c29.01-13.74,58.68-23.85,76.91-43.78c23.05-25.2,24.89-61.08,32.33-101.83c7.3-40.02,10.71-77.88,29.6-109.64
					c13.12-22.06,34.45-39.83,58.29-53.26c47.81-26.94,96.25-12.58,132.75-41.38c35.33-27.88,46.95-61.09,44.74-87.08
					c-2.43-28.61-29.26-68.38-75.75-75.3c-26.79-3.99-56.19-9.28-86.13-12.81c-34.98-4.12-68.39-23.04-82.94-51.24
					c-12.45-24.14-13.53-53.81-22.85-82.72c-7.82-24.26-19.06-45.94-33.72-63.2c-17.27-20.34-39.93-35.69-66.15-43.76"/>
				<path class="st13" d="M415.61,748.07c-28.42-39.17-45.71-93.17-28.45-139.5c13.33-35.78,45.56-62.71,79.92-78.15
					c29.19-13.12,59.23-21.7,78.81-40.44c24.73-23.66,29.78-59.21,37.42-99.73c7.64-40.52,8.88-79.51,27.03-112.61
					c12.77-23.29,34.4-42.14,58.77-56.23c45.51-26.31,92.1-15.19,127.62-43.05c33.92-26.61,46.68-58.54,45.15-84.73
					c-1.67-28.43-27.38-66.48-70.8-74.96c-26.36-5.15-55.29-11.2-84.9-14.87c-33.67-4.17-66-21.36-81.24-47.7
					c-13.47-23.27-15.95-52.39-25.02-81c-7.76-24.47-18.11-46.77-32.15-64.94c-16.75-21.68-39.36-38.48-65.89-47.76"/>
				<path class="st14" d="M417.89,747.95c-28.36-40.8-46.82-95.53-29.61-143.16c13.09-36.22,45.43-63.79,80.42-78.69
					c29.37-12.51,59.78-19.55,80.71-37.09c26.4-22.12,34.67-57.35,42.51-97.64c7.98-41.03,7.03-81.13,24.45-115.58
					c12.4-24.52,34.37-44.43,59.24-59.2c43.22-25.65,87.94-17.8,122.49-44.73c32.51-25.34,46.41-55.99,45.55-82.37
					c-0.92-28.25-25.48-64.69-65.84-74.61c-25.93-6.37-54.39-13.11-83.67-16.92c-32.36-4.21-63.64-19.66-79.54-44.16
					c-14.52-22.37-18.38-50.98-27.2-79.28c-7.69-24.67-17.15-47.61-30.58-66.68c-16.22-23.03-38.79-41.28-65.62-51.76"/>
				<path class="st35" d="M420.16,747.82c-28.3-42.43-47.93-97.89-30.76-146.82c12.86-36.67,45.29-64.88,80.93-79.23
					c29.55-11.9,60.33-17.4,82.62-33.75c28.07-20.59,39.56-55.48,47.59-95.55c8.32-41.53,5.17-82.76,21.88-118.55
					c12.03-25.75,34.35-46.7,59.72-62.17c40.95-24.96,83.78-20.41,117.37-46.41c31.1-24.07,46.12-53.44,45.96-80.02
					c-0.17-28.08-23.55-63.02-60.89-74.26c-25.48-7.67-53.48-15.02-82.44-18.98c-31.05-4.25-61.33-17.92-77.85-40.61
					c-15.61-21.44-20.8-49.56-29.38-77.56c-7.62-24.88-16.18-48.46-29.01-68.42c-15.67-24.38-38.21-44.07-65.36-55.76"/>
				<path class="st36" d="M422.44,747.7c-28.25-44.05-49.02-100.24-31.92-150.49c12.63-37.11,45.16-65.99,81.44-79.77
					c29.72-11.3,60.88-15.25,84.52-30.4c29.74-19.06,44.46-53.61,52.68-93.45c8.67-42.02,3.29-84.39,19.31-121.53
					c11.64-26.98,34.35-48.94,60.2-65.13c38.7-24.24,79.61-23.03,112.24-48.09c29.69-22.81,45.83-50.9,46.36-77.67
					c0.56-27.91-21.57-61.46-55.94-73.92c-24.99-9.06-52.58-16.92-81.21-21.04c-29.75-4.28-59.05-16.15-76.15-37.07
					C617.22-71.33,610.74-99,602.4-126.69c-7.55-25.09-15.19-49.3-27.44-70.16c-15.1-25.73-37.64-46.87-65.09-59.76"/>
				<path class="st37" d="M424.72,747.58c-28.19-45.68-50.11-102.59-33.08-154.15c12.41-37.55,45.02-67.1,81.95-80.32
					c29.9-10.7,61.4-13.16,86.42-27.06c31.38-17.59,49.36-51.74,57.77-91.36c9.02-42.52,1.4-86.01,16.73-124.5
					c11.24-28.22,34.37-51.15,60.67-68.1c36.48-23.51,75.4-25.7,107.11-49.77c28.23-21.6,45.52-48.35,46.77-75.31
					c1.28-27.74-19.52-60-50.99-73.57c-24.44-10.54-51.68-18.81-79.98-23.1c-28.44-4.31-56.8-14.33-74.46-33.53
					c-17.9-19.45-25.63-46.73-33.73-74.11c-7.48-25.3-14.2-50.14-25.87-71.9c-14.52-27.08-37.07-49.66-64.83-63.76"/>
				<path class="st17" d="M426.99,747.46c-28.14-47.31-51.19-104.94-34.23-157.81c12.19-38,44.88-68.22,82.45-80.86
					c30.07-10.12,61.96-11.01,88.32-23.71c33.06-16.05,54.27-49.87,62.86-89.26c9.38-43.02-0.5-87.63,14.16-127.47
					c10.83-29.45,34.42-53.32,61.15-71.07c34.27-22.75,71.24-28.31,101.98-51.45c26.82-20.33,45.2-45.81,47.17-72.96
					c2-27.57-17.38-58.62-46.04-73.23c-23.8-12.13-50.79-20.7-78.74-25.16c-27.14-4.33-54.56-12.46-72.76-29.98
					c-19.09-18.38-28.05-45.32-35.9-72.39c-7.4-25.51-13.19-50.97-24.3-73.64c-13.92-28.43-36.49-52.46-64.56-67.76"/>
				<path class="st38" d="M429.27,747.34c-28.08-48.93-52.26-107.29-35.39-161.47c11.97-38.44,44.74-69.35,82.96-81.4
					c30.25-9.54,62.52-8.85,90.22-20.37c34.74-14.52,59.25-47.99,67.94-87.17c9.83-43.49-2.4-89.25,11.59-130.44
					c10.42-30.67,34.5-55.45,61.63-74.04c32.08-21.98,67.08-30.92,96.85-53.13c25.41-19.06,44.88-43.28,47.58-70.6
					c2.71-27.41-15.11-57.3-41.09-72.88C788.51-18,761.67-26.75,734.05-31.39c-25.83-4.34-52.33-10.54-71.07-26.44
					c-20.31-17.23-30.41-43.92-38.08-70.67c-7.28-25.74-12.18-51.8-22.72-75.38c-13.32-29.77-35.92-55.25-64.3-71.76"/>
				<path class="st39" d="M431.54,747.22c-28.03-50.56-53.25-109.62-36.55-165.14c11.81-38.86,44.59-70.49,83.47-81.94
					c30.42-8.96,63.08-6.7,92.13-17.02c36.42-12.98,64.12-46.12,73.03-85.08c10.16-44-4.32-90.86,9.01-133.42
					c9.99-31.9,34.63-57.53,62.11-77c29.92-21.2,62.93-33.53,91.72-54.81c24.01-17.79,44.54-40.75,47.98-68.25
					c3.41-27.25-12.69-56-36.14-72.54c-22.16-15.63-49-24.44-76.28-29.27c-24.53-4.34-50.09-8.56-69.37-22.9
					c-21.54-16.01-32.84-42.5-40.26-68.95c-7.22-25.94-11.16-52.63-21.15-77.12c-12.7-31.11-35.35-58.05-64.03-75.76"/>
				<path class="st40" d="M433.82,747.09c-27.97-52.19-54.39-111.99-37.7-168.8c11.55-39.32,44.45-71.64,83.97-82.49
					c30.6-8.4,63.64-4.55,94.03-13.68c38.1-11.44,69-44.26,78.12-82.98c10.48-44.5-6.24-92.47,6.44-136.39
					c9.56-33.12,34.8-59.56,62.58-79.97s58.77-36.14,86.6-56.49c22.6-16.52,44.2-38.22,48.39-65.9c4.1-27.1-10.1-54.68-31.19-72.19
					c-21.08-17.51-48.11-26.3-75.05-31.33c-23.23-4.34-47.83-6.52-67.68-19.35c-22.76-14.72-35.28-41.08-42.43-67.22
					c-7.15-26.15-10.13-53.46-19.58-78.86c-12.07-32.45-34.77-60.84-63.77-79.76"/>
			</g>
		</g>
	</g>
</g>
</svg>
