<?xml version="1.0" standalone="no"?>
<!DOCTYPE svg PUBLIC "-//W3C//DTD SVG 20010904//EN"
 "http://www.w3.org/TR/2001/REC-SVG-20010904/DTD/svg10.dtd">
<svg version="1.0" xmlns="http://www.w3.org/2000/svg"
 width="100.000000pt" height="100.000000pt" viewBox="0 0 100.000000 100.000000"
 preserveAspectRatio="xMidYMid meet">

<g transform="translate(0.000000,100.000000) scale(0.100000,-0.100000)"
fill="#fff" stroke="none">
<path d="M261 921 c-19 -19 -21 -33 -21 -141 0 -149 7 -160 100 -160 54 0 60
-2 60 -21 0 -11 -13 -32 -30 -46 -35 -29 -38 -60 -10 -96 l21 -26 -58 -63
c-31 -35 -71 -69 -87 -76 -55 -23 -71 -70 -40 -117 15 -23 14 -26 -5 -54 -30
-42 -37 -84 -16 -104 15 -15 51 -17 325 -17 274 0 310 2 325 17 21 20 14 62
-16 104 -19 28 -20 31 -5 54 31 47 15 94 -40 117 -16 7 -56 41 -87 76 l-58 63
21 26 c28 36 25 67 -10 96 -16 14 -30 35 -30 46 0 19 6 21 60 21 93 0 100 11
100 160 0 108 -2 122 -21 141 -14 14 -30 19 -57 17 l-37 -3 -5 -55 c-4 -40 -9
-55 -20 -55 -11 0 -16 15 -20 55 l-5 55 -95 0 -95 0 -5 -55 c-4 -40 -9 -55
-20 -55 -11 0 -16 15 -20 55 l-5 55 -37 3 c-27 2 -43 -3 -57 -17z m59 -61 c0
-27 7 -47 20 -60 43 -43 100 -9 100 60 l0 40 60 0 60 0 0 -40 c0 -27 7 -47 20
-60 43 -43 100 -9 100 61 0 33 3 40 18 37 15 -3 17 -17 17 -118 l0 -115 -215
0 -215 0 -3 104 c-3 115 0 131 23 131 11 0 15 -11 15 -40z m240 -260 c0 -18
-7 -20 -60 -20 -53 0 -60 2 -60 20 0 18 7 20 60 20 53 0 60 -2 60 -20z m41
-70 c10 -6 19 -19 19 -30 0 -30 -31 -40 -120 -40 -45 0 -90 5 -101 10 -24 13
-25 46 -1 59 22 14 178 14 203 1z m-11 -119 c0 -5 21 -32 46 -60 l46 -51 -182
0 -182 0 46 51 c25 28 46 55 46 60 0 5 41 9 90 9 50 0 90 -4 90 -9z m184 -174
c8 -12 8 -22 0 -35 -10 -15 -36 -17 -269 -20 -265 -2 -285 0 -285 37 0 39 15
41 284 39 234 -3 260 -5 270 -21z m0 -135 c14 -21 26 -43 26 -50 0 -9 -74 -12
-300 -12 -226 0 -300 3 -300 12 0 7 12 29 26 50 l27 38 247 0 247 0 27 -38z"/>
</g>
</svg>
